{"title":"Star Trek Continues The White Iris Scoring WEBRip 480p x264 mp4","uid":12360654,"size":91071156,"categoryP":"video","categoryS":"tv_shows","magnet":"?xt=urn:btih:1f01dd4c1d39f20a486bdf00514a50a0265da98e&amp;dn=Star+Trek+Continues+The+White+Iris+Scoring+WEBRip+480p+x264+mp4&amp;tr=udp%3A%2F%2Ftracker.openbittorrent.com%3A80&amp;tr=udp%3A%2F%2Fopen.demonii.com%3A1337&amp;tr=udp%3A%2F%2Ftracker.coppersurfer.tk%3A6969&amp;tr=udp%3A%2F%2Fexodus.desync.com%3A6969","seeders":1,"leechers":0,"uploader":"F1_Dance","files":1,"time":1441529581,"description":"&quot;The White Iris&quot;: Scoring\n\nThe Empire Film Music Ensemble records the score for Episode 4: &quot;The White Iris.&quot;\n\n\nGeneral\nComplete name : Star.Trek.Continues.The.White.Iris.Scoring.the.Music.WEBRip.480p.x264.mp4\nFormat : MPEG-4\nFormat profile : Base Media / Version 2\nCodec ID : mp42\nFile size : 86.9 MiB\nDuration : 8mn 4s\nOverall bit rate mode : Variable\nOverall bit rate : 1 503 Kbps\nEncoded date : UTC 2015-06-26 21:49:47\nTagged date : UTC 2015-06-26 21:49:47\n\nVideo\nID : 1\nFormat : AVC\nFormat/Info : Advanced Video Codec\nFormat profile : &lt;a class=&quot;__cf_email__&quot; href=&quot;/cdn-cgi/l/email-protection&quot; data-cfemail=&quot;145c7d737c5458273a25&quot;&gt;[email&amp;#160;protected]&lt;/a&gt;&lt;script data-cfhash='f9e31' type=&quot;text/javascript&quot;&gt;\n/* &lt;![CDATA[ */!function(){try{var t=&quot;currentScript&quot;in document?document.currentScript:function(){for(var t=document.getElementsByTagName(&quot;script&quot;),e=t.length;e--;)if(t[e].getAttribute(&quot;data-cfhash&quot;))return t[e]}();if(t&amp;&amp;t.previousSibling){var e,r,n,i,c=t.previousSibling,a=c.getAttribute(&quot;data-cfemail&quot;);if(a){for(e=&quot;&quot;,r=parseInt(a.substr(0,2),16),n=2;a.length-n;n+=2)i=parseInt(a.substr(n,2),16)^r,e+=String.fromCharCode(i);e=document.createTextNode(e),c.parentNode.replaceChild(e,c)}t.parentNode.removeChild(t);}}catch(u){}}()/* ]]&gt; */&lt;/script&gt;\nFormat settings, CABAC : Yes\nFormat settings, ReFrames : 5 frames\nCodec ID : avc1\nCodec ID/Info : Advanced Video Coding\nDuration : 8mn 4s\nBit rate : 1 352 Kbps\nWidth : 854 pixels\nHeight : 480 pixels\nDisplay aspect ratio : 16:9\nFrame rate mode : Constant\nFrame rate : 23.976 fps\nColor space : YUV\nChroma subsampling : 4:2:0\nBit depth : 8 bits\nScan type : Progressive\nBits/(Pixel*Frame) : 0.138\nStream size : 78.1 MiB (90%)\nWriting library : x264 core 146 r11M 121396c\nEncoding settings : cabac=1 / ref=5 / deblock=1:0:0 / analyse=0x3:0x113 / me=umh / subme=8 / psy=1 / psy_rd=1.00:0.00 / mixed_ref=1 / me_range=16 / chroma_me=1 / trellis=1 / 8x8dct=1 / cqm=0 / deadzone=21,11 / fast_pskip=1 / chroma_qp_offset=-2 / threads=72 / lookahead_threads=3 / sliced_threads=0 / nr=0 / decimate=1 / interlaced=0 / bluray_compat=0 / stitchable=1 / constrained_intra=0 / bframes=3 / b_pyramid=2 / b_adapt=2 / b_bias=0 / direct=3 / weightb=1 / open_gop=0 / weightp=2 / keyint=infinite / keyint_min=23 / scenecut=40 / intra_refresh=0 / rc_lookahead=50 / rc=crf / mbtree=1 / crf=20.0 / qcomp=0.60 / qpmin=5 / qpmax=69 / qpstep=4 / vbv_maxrate=2750 / vbv_bufsize=7500 / crf_max=0.0 / nal_hrd=none / filler=0 / ip_ratio=1.40 / aq=1:1.00\nEncoded date : UTC 2015-06-26 21:49:47\nTagged date : UTC 2015-06-26 21:49:47\nColor range : Limited\nColor primaries : BT.709\nTransfer characteristics : BT.709\nMatrix coefficients : BT.709\n\nAudio\nID : 2\nFormat : AAC\nFormat/Info : Advanced Audio Codec\nFormat profile : LC\nCodec ID : 40\nDuration : 8mn 4s\nBit rate mode : Variable\nBit rate : 147 Kbps\nChannel(s) : 2 channels\nChannel positions : Front: L R\nSampling rate : 48.0 KHz\nCompression mode : Lossy\nStream size : 8.50 MiB (10%)\nEncoded date : UTC 2015-06-26 21:49:47\nTagged date : UTC 2015-06-26 21:49:47","torrent":{"xt":"urn:btih:1f01dd4c1d39f20a486bdf00514a50a0265da98e","amp;dn":"Star+Trek+Continues+The+White+Iris+Scoring+WEBRip+480p+x264+mp4","amp;tr":["udp%3A%2F%2Ftracker.openbittorrent.com%3A80","udp%3A%2F%2Fopen.demonii.com%3A1337","udp%3A%2F%2Ftracker.coppersurfer.tk%3A6969","udp%3A%2F%2Fexodus.desync.com%3A6969"],"infoHash":"1f01dd4c1d39f20a486bdf00514a50a0265da98e","infoHashBuffer":{"type":"Buffer","data":[31,1,221,76,29,57,242,10,72,107,223,0,81,74,80,160,38,93,169,142]},"announce":[],"urlList":[]}}